# xmcd CD database file
#
# Track frame offsets:
#	150
#	17254
#	31416
#
# Disc length: 601 seconds
#
# Revision: 1
# Processed by: cddbd v1.5.2PL0 Copyright (c) Steve Scherf et al.
# Submitted via: CDex 1.51
#
DISCID=14025703
DTITLE=Anthem of the Sun - Red Balloon
DYEAR=2011
DGENRE=Rock
TTITLE0=Red Balloon
TTITLE1=No Tragedy
TTITLE2=I wanna know
EXTD=HINOS DO BRASIL YEAR: 2011
EXTT0=
EXTT1=
EXTT2=
PLAYORDER=
